<svg xmlns="http://www.w3.org/2000/svg" viewBox="0 0 660 400" width="660" height="400" role="presentation">
  <defs>
    <linearGradient id="skyfavourites" x1="0" y1="0" x2="0.35" y2="1">
      <stop offset="0.00" stop-color="#3a1f06"/>
      <stop offset="0.50" stop-color="#7a4a10"/>
      <stop offset="1.00" stop-color="#c98f22"/>
    </linearGradient>
    <radialGradient id="glowfavourites" cx="0.78" cy="0.18" r="0.72">
      <stop offset="0" stop-color="#ffdd93" stop-opacity="0.85"/>
      <stop offset="0.45" stop-color="#ffdd93" stop-opacity="0.22"/>
      <stop offset="1" stop-color="#ffdd93" stop-opacity="0"/>
    </radialGradient>
    <radialGradient id="vigfavourites" cx="0.5" cy="0.45" r="0.78">
      <stop offset="0.55" stop-color="#000" stop-opacity="0"/>
      <stop offset="1" stop-color="#000" stop-opacity="0.2"/>
    </radialGradient>
    <!-- One ornament shared by all nine: an eight-point star on a wide repeat, faint enough to read
         as texture rather than pattern. The first version tiled at 64px and came out a diamond mesh. -->
    <pattern id="latfavourites" width="112" height="112" patternUnits="userSpaceOnUse">
      <g fill="none" stroke="#fff4d6" stroke-opacity="0.1" stroke-width="1.2">
        <polygon points="56,10 67,34 91,23 80,47 104,56 80,65 91,89 67,78 56,102 45,78 21,89 32,65 8,56 32,47 21,23 45,34"/>
      </g>
    </pattern>
  </defs>

  <rect width="660" height="400" fill="url(#skyfavourites)"/>
  <rect width="660" height="400" fill="url(#latfavourites)"/>
  <rect width="660" height="400" fill="url(#glowfavourites)"/>
  <circle cx="228" cy="102" r="2.8" fill="#fff4d6" fill-opacity="0.38"/><circle cx="131" cy="88" r="1.2" fill="#fff4d6" fill-opacity="0.27"/><circle cx="225" cy="149" r="2.3" fill="#fff4d6" fill-opacity="0.67"/><circle cx="353" cy="100" r="1.2" fill="#fff4d6" fill-opacity="0.48"/><circle cx="208" cy="231" r="2.0" fill="#fff4d6" fill-opacity="0.64"/><circle cx="222" cy="63" r="1.2" fill="#fff4d6" fill-opacity="0.34"/><circle cx="129" cy="40" r="1.6" fill="#fff4d6" fill-opacity="0.39"/><circle cx="621" cy="178" r="1.3" fill="#fff4d6" fill-opacity="0.59"/><circle cx="593" cy="79" r="1.9" fill="#fff4d6" fill-opacity="0.72"/><circle cx="293" cy="71" r="2.3" fill="#fff4d6" fill-opacity="0.28"/><circle cx="533" cy="28" r="1.5" fill="#fff4d6" fill-opacity="0.68"/><circle cx="376" cy="45" r="1.0" fill="#fff4d6" fill-opacity="0.64"/><circle cx="426" cy="183" r="2.0" fill="#fff4d6" fill-opacity="0.38"/><circle cx="397" cy="58" r="2.0" fill="#fff4d6" fill-opacity="0.43"/><circle cx="575" cy="45" r="1.2" fill="#fff4d6" fill-opacity="0.64"/><circle cx="516" cy="10" r="1.7" fill="#fff4d6" fill-opacity="0.67"/><circle cx="330" cy="200" r="118" fill="none" stroke="#fff4d6" stroke-opacity="0.22" stroke-width="2"/><polygon points="330.0,102.0 345.8,162.0 399.3,130.7 368.0,184.2 428.0,200.0 368.0,215.8 399.3,269.3 345.8,238.0 330.0,298.0 314.2,238.0 260.7,269.3 292.0,215.8 232.0,200.0 292.0,184.2 260.7,130.7 314.2,162.0" fill="#fff4d6" fill-opacity="0.5"/><polygon points="330.0,148.0 338.4,179.8 366.8,163.2 350.2,191.6 382.0,200.0 350.2,208.4 366.8,236.8 338.4,220.2 330.0,252.0 321.6,220.2 293.2,236.8 309.8,208.4 278.0,200.0 309.8,191.6 293.2,163.2 321.6,179.8" fill="#fff4d6" fill-opacity="0.34"/>
  <rect width="660" height="400" fill="url(#vigfavourites)"/>
</svg>
