<svg xmlns="http://www.w3.org/2000/svg" width="1200" height="520" viewBox="0 0 1200 520" role="img" aria-label="Quiet library niche with a geometric bound book on a wooden reading stand and warm hanging lantern"><defs>
    <linearGradient id="night" x2=".2" y2="1"><stop stop-color="#111e39"/><stop offset=".6" stop-color="#294457"/><stop offset="1" stop-color="#61868b"/></linearGradient>
    <linearGradient id="nightWall" x2="1" y2=".7"><stop stop-color="#091e2a"/><stop offset=".5" stop-color="#193b43"/><stop offset="1" stop-color="#364c4a"/></linearGradient>
    <linearGradient id="daySky" x2="0" y2="1"><stop stop-color="#99c8c9"/><stop offset=".67" stop-color="#e0e2c3"/><stop offset="1" stop-color="#f5dca2"/></linearGradient>
    <linearGradient id="stone" x2="1" y2=".4"><stop stop-color="#eddab2"/><stop offset=".25" stop-color="#d8bd8e"/><stop offset=".56" stop-color="#c3a678"/><stop offset="1" stop-color="#778778"/></linearGradient>
    <linearGradient id="paleStone" x2="0" y2="1"><stop stop-color="#f3e5c4"/><stop offset=".5" stop-color="#decea6"/><stop offset="1" stop-color="#b4aa86"/></linearGradient>
    <linearGradient id="carved" x2="1" y2="0"><stop stop-color="#2b5357"/><stop offset=".16" stop-color="#51706b"/><stop offset=".5" stop-color="#203b43"/><stop offset=".8" stop-color="#244b50"/><stop offset="1" stop-color="#829188"/></linearGradient>
    <linearGradient id="wood" x2=".3" y2="1"><stop stop-color="#a27b4c"/><stop offset=".2" stop-color="#73513c"/><stop offset=".65" stop-color="#352e2a"/><stop offset="1" stop-color="#182a2c"/></linearGradient>
    <linearGradient id="brass" x2="1" y2="0"><stop stop-color="#523b28"/><stop offset=".19" stop-color="#b68b4e"/><stop offset=".4" stop-color="#f7d58d"/><stop offset=".6" stop-color="#bf9250"/><stop offset=".84" stop-color="#705032"/><stop offset="1" stop-color="#e8be73"/></linearGradient>
    <linearGradient id="glass" x2="0" y2="1"><stop stop-color="#fff1b0"/><stop offset=".5" stop-color="#f7b852"/><stop offset="1" stop-color="#ab6b32"/></linearGradient>
    <radialGradient id="glow"><stop stop-color="#ffcf73" stop-opacity=".65"/><stop offset=".3" stop-color="#ffc575" stop-opacity=".23"/><stop offset="1" stop-color="#e79b48" stop-opacity="0"/></radialGradient>
    <radialGradient id="moonGlow"><stop stop-color="#cee9de" stop-opacity=".2"/><stop offset=".24" stop-color="#c4dedc" stop-opacity=".1"/><stop offset="1" stop-color="#b6d5d7" stop-opacity="0"/></radialGradient>
    <linearGradient id="beam" x1="1" x2=".1" y2="1"><stop stop-color="#d9f0d8" stop-opacity=".18"/><stop offset="1" stop-color="#acd2c4" stop-opacity="0"/></linearGradient>
    <linearGradient id="floor" x2=".3" y2="1"><stop stop-color="#456063"/><stop offset=".48" stop-color="#29484e"/><stop offset="1" stop-color="#0b242e"/></linearGradient>
    <linearGradient id="sandFloor" x2=".4" y2="1"><stop stop-color="#f1dfa9"/><stop offset=".5" stop-color="#cabb92"/><stop offset="1" stop-color="#597474"/></linearGradient>
    <linearGradient id="bookCover" x2=".8" y2="1"><stop stop-color="#4b7270"/><stop offset=".42" stop-color="#1c4d53"/><stop offset="1" stop-color="#0b293a"/></linearGradient>
    <linearGradient id="pages" x2="0" y2="1"><stop stop-color="#eed9a2"/><stop offset=".4" stop-color="#b39d72"/><stop offset="1" stop-color="#f0d7a1"/></linearGradient>
    <pattern id="tile" width="48" height="48" patternUnits="userSpaceOnUse"><rect width="48" height="48" fill="#244b50"/><path d="M24 0L48 24 24 48 0 24Z" fill="none" stroke="#8ba59a" stroke-width="1.5"/><path d="M0 0H48V48H0Z" fill="none" stroke="#d1bd83" stroke-opacity=".3"/><path d="M24 7L29 19 41 24 29 29 24 41 19 29 7 24 19 19Z" fill="#b89b65"/><path d="M24 13L35 24 24 35 13 24Z" fill="#315c60"/><circle cx="24" cy="24" r="3.3" fill="#bfa674"/><path d="M0 12L12 0M36 0L48 12M48 36L36 48M12 48L0 36" stroke="#859786" fill="none"/></pattern>
    <pattern id="fineTile" width="30" height="30" patternUnits="userSpaceOnUse"><rect width="30" height="30" fill="#426661"/><path d="M0 15L15 0 30 15 15 30Z M6 15L15 6 24 15 15 24Z" fill="none" stroke="#cbbb8d" stroke-opacity=".7"/><path d="M15 10L20 15 15 20 10 15Z" fill="#b69a69"/></pattern>
    <pattern id="lattice" width="26" height="26" patternUnits="userSpaceOnUse"><rect width="26" height="26" fill="#0c262f"/><path d="M13-13L39 13 13 39-13 13Z M0 0H26V26H0Z" stroke="#8a7852" stroke-width="2" fill="none"/><circle cx="13" cy="13" r="3.4" fill="#bba376"/><path d="M10 10L16 16M16 10L10 16" stroke="#413b2c"/></pattern>
    <pattern id="rug" width="46" height="46" patternUnits="userSpaceOnUse"><rect width="46" height="46" fill="#1b5159"/><path d="M23 3L43 23 23 43 3 23Z" fill="none" stroke="#a99869" stroke-opacity=".62"/><path d="M23 10L27 18 36 23 27 28 23 36 18 28 10 23 18 18Z" fill="#708173"/><circle cx="23" cy="23" r="4" fill="#173c46"/><path d="M0 0L8 8M46 0L38 8M0 46L8 38M46 46L38 38" stroke="#b49e6c" stroke-width="2"/></pattern>
    <pattern id="border" width="26" height="16" patternUnits="userSpaceOnUse"><rect width="26" height="16" fill="#ad9865"/><path d="M0 8L6 2 13 8 20 2 26 8 20 14 13 8 6 14Z" fill="#274c50"/><circle cx="13" cy="8" r="2" fill="#f1d596"/></pattern>
    <pattern id="stoneJoint" width="160" height="60" patternUnits="userSpaceOnUse"><path d="M0 0H160M0 60H160M0 0V30H160M80 30V60" stroke="#193e42" stroke-opacity=".17" fill="none"/><path d="M1 1H159M1 31H159" stroke="#f5e3b8" stroke-opacity=".16" fill="none"/></pattern>
    <pattern id="woodGrain" width="130" height="25" patternUnits="userSpaceOnUse"><path d="M0 3Q40-2 90 4T160 5M0 11Q45 17 80 11T150 12M0 20Q47 14 110 20T150 19" fill="none" stroke="#d3ab6d" stroke-opacity=".17"/><path d="M16 8Q39 5 62 9Q35 13 16 8Z" fill="none" stroke="#302b24" stroke-opacity=".25"/></pattern>
    <radialGradient id="vignette" cx=".65" cy=".4" r=".75"><stop offset=".38" stop-color="#071b25" stop-opacity="0"/><stop offset="1" stop-color="#071b25" stop-opacity=".42"/></radialGradient>
    <g id="rosette" fill="none" stroke="currentColor"><circle r="26" stroke-width="1"/><circle r="23" stroke-width=".6"/><path d="M20 0L8.5 3.52L14.14 14.14L3.52 8.5L0 20L-3.52 8.5L-14.14 14.14L-8.5 3.52L-20 0L-8.5 -3.52L-14.14 -14.14L-3.52 -8.5L0 -20L3.52 -8.5L14.14 -14.14L8.5 -3.52Z" fill="none" stroke="currentColor"/><path d="M13 0L5.52 2.29L9.19 9.19L2.29 5.52L0 13L-2.29 5.52L-9.19 9.19L-5.52 2.29L-13 0L-5.52 -2.29L-9.19 -9.19L-2.29 -5.52L0 -13L2.29 -5.52L9.19 -9.19L5.52 -2.29Z" fill="none" stroke="currentColor"/><circle r="4" fill="currentColor"/><circle cx="23" cy="0" r="1.3" fill="currentColor"/><circle cx="16.26" cy="16.26" r="1.3" fill="currentColor"/><circle cx="0" cy="23" r="1.3" fill="currentColor"/><circle cx="-16.26" cy="16.26" r="1.3" fill="currentColor"/><circle cx="-23" cy="0" r="1.3" fill="currentColor"/><circle cx="-16.26" cy="-16.26" r="1.3" fill="currentColor"/><circle cx="0" cy="-23" r="1.3" fill="currentColor"/><circle cx="16.26" cy="-16.26" r="1.3" fill="currentColor"/></g>
  </defs><defs><clipPath id="gardenOpening"><path d="M83 356V167.9C83 88.7 207.93 68.9 284.5 26C361.07 68.9 486 88.7 486 167.9V356Z"/></clipPath></defs><style>@keyframes lampBreathe{0%,100%{opacity:.7}35%{opacity:.87}55%{opacity:.76}75%{opacity:.94}}@keyframes dustDrift{0%,100%{transform:translate(0,0);opacity:.25}50%{transform:translate(7px,-9px);opacity:.65}}@keyframes starPulse{0%,100%{opacity:.3}50%{opacity:.85}}@keyframes moonDrift{0%,100%{transform:translateY(0)}50%{transform:translateY(-3px)}}.lamp-glow{animation:lampBreathe 6.3s ease-in-out infinite}.dust{animation:dustDrift 16s ease-in-out infinite}.stars{animation:starPulse 9s ease-in-out infinite}.moon{animation:moonDrift 28s ease-in-out infinite}@media(prefers-reduced-motion:reduce){*{animation:none!important}}</style>
    <rect width="1200" height="520" fill="url(#nightWall)"/>
    <path d="M0 0H1200V347H0Z" fill="#29464b"/>
    <rect x="0" y="0" width="1200" height="346" fill="url(#stoneJoint)" opacity="0.5"/>
    <path d="M38 358V135.13C38 41.29 191.45 17.83 285.5 -33C379.55 17.83 533 41.29 533 135.13V358Z" fill="#14333c" stroke="#627a70" stroke-width="5"/>
    <path d="M60 354V145.95C60 58.35 199.81 36.45 285.5 -11C371.19 36.45 511 58.35 511 145.95V354Z" fill="url(#carved)" stroke="#799487" stroke-width="3"/>
    <path d="M83 356V167.9C83 88.7 207.93 68.9 284.5 26C361.07 68.9 486 88.7 486 167.9V356Z" fill="url(#daySky)"/>
    <g clip-path="url(#gardenOpening)">
      <rect x="70" y="32" width="442" height="331" fill="url(#daySky)"/>
      <circle cx="322" cy="144" r="48" fill="#f2e4b1" opacity=".45"/>
      <path d="M55 265Q172 194 260 230T503 218V351H55Z" fill="#9daf91"/>
      <path d="M40 313Q115 256 217 283T429 271L512 293V359H40Z" fill="#648774"/>
      <path d="M341 307V246H443V305Z M351 246Q351 215 391 197Q432 215 432 246Z" fill="#baae83" opacity=".7"/>
      <path d="M374 307V280.21C374 268.93 383.61 266.11 389.5 260C395.39 266.11 405 268.93 405 280.21V307Z" fill="#416e64"/>
      <g transform="translate(136 350) scale(1.15)" fill="#3b6b60"><path d="M-3 0Q8-60 0-138L5-138Q14-67 4 0Z"/><path d="M3 -14Q-13.57 -49 -25.13 -38Q-16.84 -16 3 -14"/><path d="M3 -14L-20.61 -36" fill="none" stroke="#bfd7a2" stroke-opacity=".09"/><path d="M3 -20Q20.11 -55 37.24 -44Q24.95 -22 3 -20"/><path d="M3 -20L30.54 -42" fill="none" stroke="#bfd7a2" stroke-opacity=".09"/><path d="M3 -26Q-18.77 -61 -34.75 -50Q-23.28 -28 3 -26"/><path d="M3 -26L-28.5 -48" fill="none" stroke="#bfd7a2" stroke-opacity=".09"/><path d="M3 -32Q22.94 -67 42.48 -56Q28.46 -34 3 -32"/><path d="M3 -32L34.83 -54" fill="none" stroke="#bfd7a2" stroke-opacity=".09"/><path d="M3 -38Q-10.53 -73 -19.5 -62Q-13.06 -40 3 -38"/><path d="M3 -38L-15.99 -60" fill="none" stroke="#bfd7a2" stroke-opacity=".09"/><path d="M3 -44Q19.64 -79 36.38 -68Q24.37 -46 3 -44"/><path d="M3 -44L29.83 -66" fill="none" stroke="#bfd7a2" stroke-opacity=".09"/><path d="M3 -50Q-10.82 -85 -20.04 -74Q-13.42 -52 3 -50"/><path d="M3 -50L-16.43 -72" fill="none" stroke="#bfd7a2" stroke-opacity=".09"/><path d="M3 -56Q14.66 -91 27.14 -80Q18.18 -58 3 -56"/><path d="M3 -56L22.25 -78" fill="none" stroke="#bfd7a2" stroke-opacity=".09"/><path d="M3 -62Q-18.51 -97 -34.28 -86Q-22.97 -64 3 -62"/><path d="M3 -62L-28.11 -84" fill="none" stroke="#bfd7a2" stroke-opacity=".09"/><path d="M3 -68Q22.87 -103 42.35 -92Q28.37 -70 3 -68"/><path d="M3 -68L34.73 -90" fill="none" stroke="#bfd7a2" stroke-opacity=".09"/><path d="M3 -74Q-19.63 -109 -36.35 -98Q-24.35 -76 3 -74"/><path d="M3 -74L-29.81 -96" fill="none" stroke="#bfd7a2" stroke-opacity=".09"/><path d="M3 -80Q17.44 -115 32.3 -104Q21.64 -82 3 -80"/><path d="M3 -80L26.49 -102" fill="none" stroke="#bfd7a2" stroke-opacity=".09"/><path d="M3 -86Q-18.16 -121 -33.64 -110Q-22.54 -88 3 -86"/><path d="M3 -86L-27.58 -108" fill="none" stroke="#bfd7a2" stroke-opacity=".09"/><path d="M3 -92Q20.94 -127 38.77 -116Q25.98 -94 3 -92"/><path d="M3 -92L31.79 -114" fill="none" stroke="#bfd7a2" stroke-opacity=".09"/><path d="M3 -98Q-24.62 -133 -45.6 -122Q-30.55 -100 3 -98"/><path d="M3 -98L-37.39 -120" fill="none" stroke="#bfd7a2" stroke-opacity=".09"/><path d="M3 -104Q15.86 -139 29.37 -128Q19.68 -106 3 -104"/><path d="M3 -104L24.09 -126" fill="none" stroke="#bfd7a2" stroke-opacity=".09"/><path d="M3 -110Q-14.91 -145 -27.61 -134Q-18.5 -112 3 -110"/><path d="M3 -110L-22.64 -132" fill="none" stroke="#bfd7a2" stroke-opacity=".09"/><path d="M3 -116Q15.75 -151 29.17 -140Q19.55 -118 3 -116"/><path d="M3 -116L23.92 -138" fill="none" stroke="#bfd7a2" stroke-opacity=".09"/><path d="M3 -122Q-19.09 -157 -35.35 -146Q-23.68 -124 3 -122"/><path d="M3 -122L-28.99 -144" fill="none" stroke="#bfd7a2" stroke-opacity=".09"/></g>
      <g transform="translate(480 355) scale(0.94)" fill="#4d7b65"><path d="M-3 0Q8-60 0-138L5-138Q14-67 4 0Z"/><path d="M3 -14Q-13.58 -49 -25.14 -38Q-16.84 -16 3 -14"/><path d="M3 -14L-20.61 -36" fill="none" stroke="#bfd7a2" stroke-opacity=".09"/><path d="M3 -20Q21.58 -55 39.96 -44Q26.77 -22 3 -20"/><path d="M3 -20L32.77 -42" fill="none" stroke="#bfd7a2" stroke-opacity=".09"/><path d="M3 -26Q-13.66 -61 -25.29 -50Q-16.95 -28 3 -26"/><path d="M3 -26L-20.74 -48" fill="none" stroke="#bfd7a2" stroke-opacity=".09"/><path d="M3 -32Q23.54 -67 43.59 -56Q29.2 -34 3 -32"/><path d="M3 -32L35.74 -54" fill="none" stroke="#bfd7a2" stroke-opacity=".09"/><path d="M3 -38Q-21.33 -73 -39.49 -62Q-26.46 -40 3 -38"/><path d="M3 -38L-32.38 -60" fill="none" stroke="#bfd7a2" stroke-opacity=".09"/><path d="M3 -44Q15.56 -79 28.81 -68Q19.3 -46 3 -44"/><path d="M3 -44L23.62 -66" fill="none" stroke="#bfd7a2" stroke-opacity=".09"/><path d="M3 -50Q-17.8 -85 -32.97 -74Q-22.09 -52 3 -50"/><path d="M3 -50L-27.03 -72" fill="none" stroke="#bfd7a2" stroke-opacity=".09"/><path d="M3 -56Q13.3 -91 24.62 -80Q16.5 -58 3 -56"/><path d="M3 -56L20.19 -78" fill="none" stroke="#bfd7a2" stroke-opacity=".09"/><path d="M3 -62Q-10.55 -97 -19.54 -86Q-13.09 -64 3 -62"/><path d="M3 -62L-16.02 -84" fill="none" stroke="#bfd7a2" stroke-opacity=".09"/><path d="M3 -68Q23.8 -103 44.07 -92Q29.53 -70 3 -68"/><path d="M3 -68L36.14 -90" fill="none" stroke="#bfd7a2" stroke-opacity=".09"/><path d="M3 -74Q-10.78 -109 -19.96 -98Q-13.37 -76 3 -74"/><path d="M3 -74L-16.37 -96" fill="none" stroke="#bfd7a2" stroke-opacity=".09"/><path d="M3 -80Q12.34 -115 22.85 -104Q15.31 -82 3 -80"/><path d="M3 -80L18.74 -102" fill="none" stroke="#bfd7a2" stroke-opacity=".09"/><path d="M3 -86Q-17.79 -121 -32.94 -110Q-22.07 -88 3 -86"/><path d="M3 -86L-27.01 -108" fill="none" stroke="#bfd7a2" stroke-opacity=".09"/><path d="M3 -92Q20.16 -127 37.33 -116Q25.01 -94 3 -92"/><path d="M3 -92L30.61 -114" fill="none" stroke="#bfd7a2" stroke-opacity=".09"/><path d="M3 -98Q-12.12 -133 -22.45 -122Q-15.04 -100 3 -98"/><path d="M3 -98L-18.41 -120" fill="none" stroke="#bfd7a2" stroke-opacity=".09"/><path d="M3 -104Q23.41 -139 43.36 -128Q29.05 -106 3 -104"/><path d="M3 -104L35.55 -126" fill="none" stroke="#bfd7a2" stroke-opacity=".09"/><path d="M3 -110Q-17.39 -145 -32.21 -134Q-21.58 -112 3 -110"/><path d="M3 -110L-26.41 -132" fill="none" stroke="#bfd7a2" stroke-opacity=".09"/><path d="M3 -116Q16 -151 29.63 -140Q19.85 -118 3 -116"/><path d="M3 -116L24.3 -138" fill="none" stroke="#bfd7a2" stroke-opacity=".09"/><path d="M3 -122Q-23.93 -157 -44.31 -146Q-29.69 -124 3 -122"/><path d="M3 -122L-36.33 -144" fill="none" stroke="#bfd7a2" stroke-opacity=".09"/></g>
      <g transform="translate(245 362) scale(0.47)" fill="#527e63"><path d="M-3 0Q8-60 0-138L5-138Q14-67 4 0Z"/><path d="M3 -14Q-13.64 -49 -25.26 -38Q-16.92 -16 3 -14"/><path d="M3 -14L-20.71 -36" fill="none" stroke="#bfd7a2" stroke-opacity=".09"/><path d="M3 -26.67Q20.07 -61.67 37.17 -50.67Q24.91 -28.67 3 -26.67"/><path d="M3 -26.67L30.48 -48.67" fill="none" stroke="#bfd7a2" stroke-opacity=".09"/><path d="M3 -39.33Q-11.18 -74.33 -20.7 -63.33Q-13.87 -41.33 3 -39.33"/><path d="M3 -39.33L-16.98 -61.33" fill="none" stroke="#bfd7a2" stroke-opacity=".09"/><path d="M3 -52Q13.33 -87 24.69 -76Q16.54 -54 3 -52"/><path d="M3 -52L20.25 -74" fill="none" stroke="#bfd7a2" stroke-opacity=".09"/><path d="M3 -64.67Q-15.89 -99.67 -29.43 -88.67Q-19.72 -66.67 3 -64.67"/><path d="M3 -64.67L-24.13 -86.67" fill="none" stroke="#bfd7a2" stroke-opacity=".09"/><path d="M3 -77.33Q23.29 -112.33 43.12 -101.33Q28.89 -79.33 3 -77.33"/><path d="M3 -77.33L35.36 -99.33" fill="none" stroke="#bfd7a2" stroke-opacity=".09"/><path d="M3 -90Q-22.83 -125 -42.28 -114Q-28.33 -92 3 -90"/><path d="M3 -90L-34.67 -112" fill="none" stroke="#bfd7a2" stroke-opacity=".09"/><path d="M3 -102.67Q15.91 -137.67 29.47 -126.67Q19.74 -104.67 3 -102.67"/><path d="M3 -102.67L24.17 -124.67" fill="none" stroke="#bfd7a2" stroke-opacity=".09"/><path d="M3 -115.33Q-11.96 -150.33 -22.16 -139.33Q-14.84 -117.33 3 -115.33"/><path d="M3 -115.33L-18.17 -137.33" fill="none" stroke="#bfd7a2" stroke-opacity=".09"/></g>
      <path d="M102 182Q139 87 223 60M128 133Q100 77 88 53M170 96Q170 45 146 11" fill="none" stroke="#456b56" stroke-width="9"/>
      <ellipse cx="96" cy="122" rx="13" ry="8" transform="rotate(0 96 122)" fill="#658a67"/><ellipse cx="102.5" cy="113.44" rx="17" ry="9" transform="rotate(17 102.5 113.44)" fill="#739772"/><ellipse cx="109" cy="105.03" rx="21" ry="10" transform="rotate(34 109 105.03)" fill="#517b63"/><ellipse cx="115.5" cy="96.91" rx="13" ry="11" transform="rotate(51 115.5 96.91)" fill="#658a67"/><ellipse cx="122" cy="89.21" rx="17" ry="8" transform="rotate(68 122 89.21)" fill="#739772"/><ellipse cx="128.5" cy="82.06" rx="21" ry="9" transform="rotate(85 128.5 82.06)" fill="#517b63"/><ellipse cx="135" cy="75.58" rx="13" ry="10" transform="rotate(102 135 75.58)" fill="#658a67"/><ellipse cx="141.5" cy="69.89" rx="17" ry="11" transform="rotate(119 141.5 69.89)" fill="#739772"/><ellipse cx="148" cy="65.08" rx="21" ry="8" transform="rotate(136 148 65.08)" fill="#517b63"/><ellipse cx="154.5" cy="61.23" rx="13" ry="9" transform="rotate(153 154.5 61.23)" fill="#658a67"/><ellipse cx="161" cy="58.41" rx="17" ry="10" transform="rotate(170 161 58.41)" fill="#739772"/><ellipse cx="167.5" cy="56.65" rx="21" ry="11" transform="rotate(187 167.5 56.65)" fill="#517b63"/><ellipse cx="174" cy="56" rx="13" ry="8" transform="rotate(204 174 56)" fill="#658a67"/><ellipse cx="180.5" cy="56.47" rx="17" ry="9" transform="rotate(221 180.5 56.47)" fill="#739772"/><ellipse cx="187" cy="58.04" rx="21" ry="10" transform="rotate(238 187 58.04)" fill="#517b63"/><ellipse cx="193.5" cy="60.69" rx="13" ry="11" transform="rotate(255 193.5 60.69)" fill="#658a67"/><ellipse cx="200" cy="64.37" rx="17" ry="8" transform="rotate(272 200 64.37)" fill="#739772"/><ellipse cx="206.5" cy="69.03" rx="21" ry="9" transform="rotate(289 206.5 69.03)" fill="#517b63"/><ellipse cx="213" cy="74.58" rx="13" ry="10" transform="rotate(306 213 74.58)" fill="#658a67"/><ellipse cx="219.5" cy="80.93" rx="17" ry="11" transform="rotate(323 219.5 80.93)" fill="#739772"/><ellipse cx="226" cy="87.98" rx="21" ry="8" transform="rotate(340 226 87.98)" fill="#517b63"/><ellipse cx="232.5" cy="95.6" rx="13" ry="9" transform="rotate(357 232.5 95.6)" fill="#658a67"/>
      <path d="M71 321H505V334H71Z" fill="#c4bd98"/>
      <path d="M69 327H509V339H69Z" fill="#69887a"/>
      <path d="M87 335h9v36h-9z" fill="#aeb497"/><path d="M84 337h15v5h-15z" fill="#d2c8a1"/><path d="M118 335h9v36h-9z" fill="#aeb497"/><path d="M115 337h15v5h-15z" fill="#d2c8a1"/><path d="M149 335h9v36h-9z" fill="#aeb497"/><path d="M146 337h15v5h-15z" fill="#d2c8a1"/><path d="M180 335h9v36h-9z" fill="#aeb497"/><path d="M177 337h15v5h-15z" fill="#d2c8a1"/><path d="M211 335h9v36h-9z" fill="#aeb497"/><path d="M208 337h15v5h-15z" fill="#d2c8a1"/><path d="M242 335h9v36h-9z" fill="#aeb497"/><path d="M239 337h15v5h-15z" fill="#d2c8a1"/><path d="M273 335h9v36h-9z" fill="#aeb497"/><path d="M270 337h15v5h-15z" fill="#d2c8a1"/><path d="M304 335h9v36h-9z" fill="#aeb497"/><path d="M301 337h15v5h-15z" fill="#d2c8a1"/><path d="M335 335h9v36h-9z" fill="#aeb497"/><path d="M332 337h15v5h-15z" fill="#d2c8a1"/><path d="M366 335h9v36h-9z" fill="#aeb497"/><path d="M363 337h15v5h-15z" fill="#d2c8a1"/><path d="M397 335h9v36h-9z" fill="#aeb497"/><path d="M394 337h15v5h-15z" fill="#d2c8a1"/><path d="M428 335h9v36h-9z" fill="#aeb497"/><path d="M425 337h15v5h-15z" fill="#d2c8a1"/><path d="M459 335h9v36h-9z" fill="#aeb497"/><path d="M456 337h15v5h-15z" fill="#d2c8a1"/>
      <path d="M70 367H511V380H70Z" fill="#c4bd9a"/>
    </g>
    <path d="M83 174V356L63 369V178Z" fill="#143d44"/>
    <path d="M487 174V356L507 370V178Z" fill="#637b70"/>
    <path d="M63 357H508L532 376H44Z" fill="#8a9682"/><path d="M44 376H532V384H44Z" fill="#385755"/>
    <path d="M47 376H528" stroke="#c1c5a5" stroke-opacity=".5"/>
    <path d="M0 373L566 337 1200 371V520H0Z" fill="url(#floor)"/>
    <g fill="none" stroke="#bed3c3" stroke-opacity="0.17" stroke-width="1.1"><path d="M621 350L-220 550"/><path d="M647 350L-95 550"/><path d="M673 350L30 550"/><path d="M699 350L155 550"/><path d="M725 350L280 550"/><path d="M751 350L405 550"/><path d="M777 350L530 550"/><path d="M803 350L655 550"/><path d="M829 350L780 550"/><path d="M855 350L905 550"/><path d="M881 350L1030 550"/><path d="M907 350L1155 550"/><path d="M933 350L1280 550"/><path d="M959 350L1405 550"/><path d="M985 350L1530 550"/><path d="M1011 350L1655 550"/><path d="M0 366H1200"/><path d="M0 390H1200"/><path d="M0 424H1200"/><path d="M0 472H1200"/><path d="M0 537H1200"/></g>
    <path d="M512 0H586V353L555 356V0Z" fill="url(#carved)"/>
    <path d="M512 0H526V356H512Z" fill="#97a18b" opacity=".25"/>
    <path d="M529 0H536V356H529Z" fill="#11323c" opacity=".6"/>
    <path d="M620 383V143.03C620 41.99 780.58 16.73 879 -38C977.42 16.73 1138 41.99 1138 143.03V383Z" fill="#173640" stroke="#849281" stroke-width="3"/>
    <path d="M639 378V152.28C639 57.24 787.49 33.48 878.5 -18C969.51 33.48 1118 57.24 1118 152.28V378Z" fill="url(#carved)"/>
    <path d="M660 372V162.24C660 73.92 795.16 51.84 878 4C960.84 51.84 1096 73.92 1096 162.24V372Z" fill="#0b2c39" stroke="#788b7a" stroke-width="2"/>
    <g stroke="#acb18d" stroke-opacity="0.18" stroke-width="1.5"><path d="M661.22 148.12l-19.8 -7"/><path d="M670.4 123.17l-18.86 -9.23"/><path d="M687.27 102l-17.66 -11.37"/><path d="M710.3 83.84l-16.08 -13.51"/><path d="M737.94 67.94l-13.99 -15.66"/><path d="M768.64 53.54l-11.3 -17.7"/><path d="M800.87 39.88l-8.08 -19.38"/><path d="M833.09 26.2l-4.63 -20.48"/><path d="M863.74 11.75l-1.4 -20.95"/><path d="M1094.78 148.12l19.8 -7"/><path d="M1085.6 123.17l18.86 -9.23"/><path d="M1068.73 102l17.66 -11.37"/><path d="M1045.7 83.84l16.08 -13.51"/><path d="M1018.07 67.94l13.99 -15.66"/><path d="M987.36 53.54l11.3 -17.7"/><path d="M955.13 39.88l8.08 -19.38"/><path d="M922.91 26.2l4.63 -20.48"/><path d="M892.26 11.75l1.4 -20.95"/></g>
    <path d="M680 366V170.49C680 88.17 803.07 67.59 878.5 23C953.93 67.59 1077 88.17 1077 170.49V366Z" fill="#28494b" stroke="#284746" stroke-width="9"/>
    <path d="M693 362V176.75C693 98.75 807.39 79.25 877.5 37C947.61 79.25 1062 98.75 1062 176.75V362Z" fill="#26494c"/>
    <rect x="704" y="90" width="347" height="245" fill="url(#stoneJoint)" opacity="0.6"/>
    <path d="M692 270H1064V366H692Z" fill="url(#tile)" opacity=".72"/>
    <path d="M692 262H1064V274H692Z" fill="url(#border)" opacity=".75"/>
    <path d="M656 365H1098L1128 385H635Z" fill="#738370"/>
    <path d="M635 385H1128V394H635Z" fill="#244547"/>
    <path d="M639 385H1123" stroke="#b1b695" stroke-opacity=".45"/>
    <path d="M749 267V160.41C749 115.53 830.22 104.31 880 80C929.78 104.31 1011 115.53 1011 160.41V267Z" fill="#193e43" stroke="#8b946f" stroke-opacity=".5" stroke-width="2"/>
    <path d="M761 265V166.96C761 125.68 834.78 115.36 880 93C925.22 115.36 999 125.68 999 166.96V265Z" fill="url(#fineTile)" opacity=".23"/>
    <g transform="translate(879 162) scale(1.47)" color="#859479"><use href="#rosette"/></g>
    <g transform="translate(662 396) scale(0.23)" color="#9b9c78"><use href="#rosette"/></g><g transform="translate(701 396) scale(0.23)" color="#9b9c78"><use href="#rosette"/></g><g transform="translate(740 396) scale(0.23)" color="#9b9c78"><use href="#rosette"/></g><g transform="translate(779 396) scale(0.23)" color="#9b9c78"><use href="#rosette"/></g><g transform="translate(818 396) scale(0.23)" color="#9b9c78"><use href="#rosette"/></g><g transform="translate(857 396) scale(0.23)" color="#9b9c78"><use href="#rosette"/></g><g transform="translate(896 396) scale(0.23)" color="#9b9c78"><use href="#rosette"/></g><g transform="translate(935 396) scale(0.23)" color="#9b9c78"><use href="#rosette"/></g><g transform="translate(974 396) scale(0.23)" color="#9b9c78"><use href="#rosette"/></g><g transform="translate(1013 396) scale(0.23)" color="#9b9c78"><use href="#rosette"/></g><g transform="translate(1052 396) scale(0.23)" color="#9b9c78"><use href="#rosette"/></g><g transform="translate(1091 396) scale(0.23)" color="#9b9c78"><use href="#rosette"/></g>
    <path d="M681 306L166 520H644L1045 349Z" fill="url(#beam)" opacity=".8"/>
    <path d="M126 357L483 358 766 520H404Z" fill="url(#beam)" opacity=".3"/>
    <path d="M34 388L486 389 454 404 0 410Z" fill="#091f29" opacity=".4"/>
    <g transform="translate(657 413) matrix(1 0 -0.65 .48 0 0)" opacity="0.85"><rect x="-3" y="2" width="460" height="205" fill="#061c25" opacity=".4"/><rect width="452" height="196" fill="url(#rug)"/><rect x="5" y="5" width="442" height="186" fill="none" stroke="#c2ab75" stroke-width="2"/><rect x="12" y="12" width="428" height="172" fill="none" stroke="#998a62" stroke-width="7"/><rect x="19" y="19" width="414" height="158" fill="none" stroke="#e2c58b" stroke-width="1"/><path d="M131.08 168V90.48C131.08 57.84 189.93 49.68 226 32C262.07 49.68 320.92 57.84 320.92 90.48V168Z" fill="#244e50" stroke="#c0a26b" stroke-width="2"/><g transform="translate(226 117.6) scale(1.13)" color="#bea577"><use href="#rosette"/></g><path d="M5 0v-8M5 196v8" stroke="#c1b287" stroke-width="1.8"/><path d="M18 0v-8M18 196v8" stroke="#c1b287" stroke-width="1.8"/><path d="M31 0v-8M31 196v8" stroke="#c1b287" stroke-width="1.8"/><path d="M44 0v-8M44 196v8" stroke="#c1b287" stroke-width="1.8"/><path d="M57 0v-8M57 196v8" stroke="#c1b287" stroke-width="1.8"/><path d="M70 0v-8M70 196v8" stroke="#c1b287" stroke-width="1.8"/><path d="M83 0v-8M83 196v8" stroke="#c1b287" stroke-width="1.8"/><path d="M96 0v-8M96 196v8" stroke="#c1b287" stroke-width="1.8"/><path d="M109 0v-8M109 196v8" stroke="#c1b287" stroke-width="1.8"/><path d="M122 0v-8M122 196v8" stroke="#c1b287" stroke-width="1.8"/><path d="M135 0v-8M135 196v8" stroke="#c1b287" stroke-width="1.8"/><path d="M148 0v-8M148 196v8" stroke="#c1b287" stroke-width="1.8"/><path d="M161 0v-8M161 196v8" stroke="#c1b287" stroke-width="1.8"/><path d="M174 0v-8M174 196v8" stroke="#c1b287" stroke-width="1.8"/><path d="M187 0v-8M187 196v8" stroke="#c1b287" stroke-width="1.8"/><path d="M200 0v-8M200 196v8" stroke="#c1b287" stroke-width="1.8"/><path d="M213 0v-8M213 196v8" stroke="#c1b287" stroke-width="1.8"/><path d="M226 0v-8M226 196v8" stroke="#c1b287" stroke-width="1.8"/><path d="M239 0v-8M239 196v8" stroke="#c1b287" stroke-width="1.8"/><path d="M252 0v-8M252 196v8" stroke="#c1b287" stroke-width="1.8"/><path d="M265 0v-8M265 196v8" stroke="#c1b287" stroke-width="1.8"/><path d="M278 0v-8M278 196v8" stroke="#c1b287" stroke-width="1.8"/><path d="M291 0v-8M291 196v8" stroke="#c1b287" stroke-width="1.8"/><path d="M304 0v-8M304 196v8" stroke="#c1b287" stroke-width="1.8"/><path d="M317 0v-8M317 196v8" stroke="#c1b287" stroke-width="1.8"/><path d="M330 0v-8M330 196v8" stroke="#c1b287" stroke-width="1.8"/><path d="M343 0v-8M343 196v8" stroke="#c1b287" stroke-width="1.8"/><path d="M356 0v-8M356 196v8" stroke="#c1b287" stroke-width="1.8"/><path d="M369 0v-8M369 196v8" stroke="#c1b287" stroke-width="1.8"/><path d="M382 0v-8M382 196v8" stroke="#c1b287" stroke-width="1.8"/><path d="M395 0v-8M395 196v8" stroke="#c1b287" stroke-width="1.8"/><path d="M408 0v-8M408 196v8" stroke="#c1b287" stroke-width="1.8"/><path d="M421 0v-8M421 196v8" stroke="#c1b287" stroke-width="1.8"/><path d="M434 0v-8M434 196v8" stroke="#c1b287" stroke-width="1.8"/><path d="M447 0v-8M447 196v8" stroke="#c1b287" stroke-width="1.8"/></g>
    <path d="M1129 36H1200V367H1129Z" fill="#0c2b35" stroke="#566d5c" stroke-width="3"/>
    <path d="M1140 50H1200V123H1140Z M1140 139H1200V228H1140Z M1140 244H1200V350H1140Z" fill="#112d33"/>
    <g transform="translate(1145 58)"><path d="M0 0H10V62H0Z" fill="#647161"/><path d="M2 3V56M1 9H9M1 15H9M1 51H9" stroke="#cdb47b" stroke-opacity=".45" stroke-width=".8"/></g><g transform="translate(1158 58)"><path d="M0 0H10V62H0Z" fill="#a58b61"/><path d="M2 3V56M1 9H9M1 15H9M1 51H9" stroke="#cdb47b" stroke-opacity=".45" stroke-width=".8"/></g><g transform="translate(1171 58)"><path d="M0 0H10V62H0Z" fill="#3a5b56"/><path d="M2 3V56M1 9H9M1 15H9M1 51H9" stroke="#cdb47b" stroke-opacity=".45" stroke-width=".8"/></g><g transform="translate(1184 58)"><path d="M0 0H10V62H0Z" fill="#786b50"/><path d="M2 3V56M1 9H9M1 15H9M1 51H9" stroke="#cdb47b" stroke-opacity=".45" stroke-width=".8"/></g><g transform="translate(1197 58)"><path d="M0 0H10V62H0Z" fill="#456358"/><path d="M2 3V56M1 9H9M1 15H9M1 51H9" stroke="#cdb47b" stroke-opacity=".45" stroke-width=".8"/></g><g transform="translate(1145 157)"><path d="M0 0H10V65H0Z" fill="#647161"/><path d="M2 3V59M1 9H9M1 15H9M1 54H9" stroke="#cdb47b" stroke-opacity=".45" stroke-width=".8"/></g><g transform="translate(1158 157)"><path d="M0 0H10V65H0Z" fill="#a58b61"/><path d="M2 3V59M1 9H9M1 15H9M1 54H9" stroke="#cdb47b" stroke-opacity=".45" stroke-width=".8"/></g><g transform="translate(1171 157)"><path d="M0 0H10V65H0Z" fill="#3a5b56"/><path d="M2 3V59M1 9H9M1 15H9M1 54H9" stroke="#cdb47b" stroke-opacity=".45" stroke-width=".8"/></g><g transform="translate(1184 157)"><path d="M0 0H10V65H0Z" fill="#786b50"/><path d="M2 3V59M1 9H9M1 15H9M1 54H9" stroke="#cdb47b" stroke-opacity=".45" stroke-width=".8"/></g><g transform="translate(1197 157)"><path d="M0 0H10V65H0Z" fill="#456358"/><path d="M2 3V59M1 9H9M1 15H9M1 54H9" stroke="#cdb47b" stroke-opacity=".45" stroke-width=".8"/></g><g transform="translate(1145 274)"><path d="M0 0H10V70H0Z" fill="#647161"/><path d="M2 3V64M1 9H9M1 15H9M1 59H9" stroke="#cdb47b" stroke-opacity=".45" stroke-width=".8"/></g><g transform="translate(1158 274)"><path d="M0 0H10V70H0Z" fill="#a58b61"/><path d="M2 3V64M1 9H9M1 15H9M1 59H9" stroke="#cdb47b" stroke-opacity=".45" stroke-width=".8"/></g><g transform="translate(1171 274)"><path d="M0 0H10V70H0Z" fill="#3a5b56"/><path d="M2 3V64M1 9H9M1 15H9M1 59H9" stroke="#cdb47b" stroke-opacity=".45" stroke-width=".8"/></g><g transform="translate(1184 274)"><path d="M0 0H10V70H0Z" fill="#786b50"/><path d="M2 3V64M1 9H9M1 15H9M1 59H9" stroke="#cdb47b" stroke-opacity=".45" stroke-width=".8"/></g>
    <path d="M1136 123H1200V139H1136Z M1136 229H1200V245H1136Z M1136 351H1200V364H1136Z" fill="url(#wood)"/>
    <path d="M1137 124H1200M1137 230H1200M1137 352H1200" stroke="#b09260" stroke-opacity=".5"/>
    <ellipse class="lamp-glow" cx="918" cy="261" rx="209" ry="173" fill="url(#glow)" opacity=".4"/>
    <g transform="translate(943 115) scale(0.75)"><path d="M0 -170V-65" stroke="#c1a067" stroke-width="2"/><path d="M-3 -170V-65" stroke="#172f33" stroke-width="1"/><ellipse cx="0" cy="-170" rx="2" ry="4" fill="none" stroke="#ccad6b" stroke-width=".8"/><ellipse cx="0" cy="-162" rx="2" ry="4" fill="none" stroke="#ccad6b" stroke-width=".8"/><ellipse cx="0" cy="-154" rx="2" ry="4" fill="none" stroke="#ccad6b" stroke-width=".8"/><ellipse cx="0" cy="-146" rx="2" ry="4" fill="none" stroke="#ccad6b" stroke-width=".8"/><ellipse cx="0" cy="-138" rx="2" ry="4" fill="none" stroke="#ccad6b" stroke-width=".8"/><ellipse cx="0" cy="-130" rx="2" ry="4" fill="none" stroke="#ccad6b" stroke-width=".8"/><ellipse cx="0" cy="-122" rx="2" ry="4" fill="none" stroke="#ccad6b" stroke-width=".8"/><ellipse cx="0" cy="-114" rx="2" ry="4" fill="none" stroke="#ccad6b" stroke-width=".8"/><ellipse cx="0" cy="-106" rx="2" ry="4" fill="none" stroke="#ccad6b" stroke-width=".8"/><ellipse cx="0" cy="-98" rx="2" ry="4" fill="none" stroke="#ccad6b" stroke-width=".8"/><ellipse cx="0" cy="-90" rx="2" ry="4" fill="none" stroke="#ccad6b" stroke-width=".8"/><ellipse cx="0" cy="-82" rx="2" ry="4" fill="none" stroke="#ccad6b" stroke-width=".8"/><ellipse cx="0" cy="-74" rx="2" ry="4" fill="none" stroke="#ccad6b" stroke-width=".8"/><g class="lamp-glow"><ellipse cy="0" rx="137" ry="116" fill="url(#glow)"/></g><path d="M-5-64Q-12-73 0-77Q12-73 5-64" fill="none" stroke="url(#brass)" stroke-width="2"/><path d="M-20-36Q-17-51-6-58V-64H6V-58Q17-51 20-36Z" fill="url(#brass)"/><path d="M-17-31H17L24 18 14 38H-14L-24 18Z" fill="url(#glass)"/><path d="M-20-35H20V-29H-20Z M-26 16H26V23H-26Z M-16 35H16V40H-16Z" fill="url(#brass)"/><path d="M-20-29L-24 16-14 37M20-29L24 16 14 37M-7-29L-8 16-5 37M7-29L8 16 5 37" fill="none" stroke="#8c6739" stroke-width="2.8"/><path d="M-19-27L-22 15M-6-27L-6 14M8-27L9 14" stroke="#ffe8a0" stroke-opacity=".75" stroke-width="1"/><path d="M-13 39Q0 52 13 39" fill="url(#brass)"/><path d="M0 46V55" stroke="#c6a067" stroke-width="2"/><circle cy="57" r="3" fill="#d7b275"/><path d="M-13-42l2-6 2 6" fill="none" stroke="#503d2b" stroke-width="1.2"/><path d="M-6.5-42l2-6 2 6" fill="none" stroke="#503d2b" stroke-width="1.2"/><path d="M0-42l2-6 2 6" fill="none" stroke="#503d2b" stroke-width="1.2"/><path d="M6.5-42l2-6 2 6" fill="none" stroke="#503d2b" stroke-width="1.2"/><path d="M13-42l2-6 2 6" fill="none" stroke="#503d2b" stroke-width="1.2"/><circle cx="-18" cy="19" r="1" fill="#f8d696"/><circle cx="-12" cy="19" r="1" fill="#f8d696"/><circle cx="-6" cy="19" r="1" fill="#f8d696"/><circle cx="0" cy="19" r="1" fill="#f8d696"/><circle cx="6" cy="19" r="1" fill="#f8d696"/><circle cx="12" cy="19" r="1" fill="#f8d696"/><circle cx="18" cy="19" r="1" fill="#f8d696"/><path d="M0 8Q-8-3 0-14Q9-1 0 8Z" fill="#fff7c4"/><ellipse cy="9" rx="7" ry="2" fill="#7c552d"/></g>
    <g>
    <ellipse cx="887" cy="453" rx="153" ry="28" fill="#06232c" opacity=".47"/>
    <path d="M781 340L942 450 967 445 803 331Z" fill="url(#wood)" stroke="#ac8759" stroke-width="1.5"/>
    <path d="M1015 338L811 458 786 450 992 329Z" fill="url(#wood)" stroke="#a98457" stroke-width="1.5"/>
    <path d="M796 345L949 448M1001 343L802 451" stroke="#dfb878" stroke-opacity=".42" stroke-width="2"/>
    <path d="M807 356L875 402 851 415 798 372Z M932 397L960 380 947 394 942 410Z" fill="#17363c"/>
    <path d="M772 341L896 273 1038 337 902 405Z" fill="url(#wood)" stroke="#b99865" stroke-width="2"/>
    <path d="M787 341L897 283 1018 337 901 395Z" fill="none" stroke="#bf9a60" stroke-opacity=".6"/>
    <path d="M774 342L902 405 1037 338V348L902 416 774 352Z" fill="#3d362d"/>
    <path d="M774 343L902 406 1037 339" stroke="#dfb374" stroke-opacity=".7" fill="none"/>
    <path d="M794 297L927 239 1029 300 895 363Z" fill="#051e29" opacity=".6"/>
    <path d="M789 297L922 238 1029 302 894 363 789 306Z" fill="#a18859"/>
    <path d="M796 292L924 236 1021 294V312L895 371 796 312Z" fill="url(#pages)"/>
    <path d="M798 296L895 354L1019 296" stroke="#715f43" stroke-opacity="0.22" stroke-width=".7" fill="none"/><path d="M798 298L895 356L1019 298" stroke="#715f43" stroke-opacity="0.26" stroke-width=".7" fill="none"/><path d="M798 300L895 358L1019 300" stroke="#715f43" stroke-opacity="0.3" stroke-width=".7" fill="none"/><path d="M798 302L895 360L1019 302" stroke="#715f43" stroke-opacity="0.34" stroke-width=".7" fill="none"/><path d="M798 304L895 362L1019 304" stroke="#715f43" stroke-opacity="0.38" stroke-width=".7" fill="none"/><path d="M798 306L895 364L1019 306" stroke="#715f43" stroke-opacity="0.42" stroke-width=".7" fill="none"/><path d="M798 308L895 366L1019 308" stroke="#715f43" stroke-opacity="0.46" stroke-width=".7" fill="none"/>
    <path d="M792 280L922 223 1031 285 895 350Z" fill="url(#bookCover)" stroke="#c7b176" stroke-width="2"/>
    <path d="M791 280L895 340V352L791 293Z" fill="#15414a"/>
    <path d="M791 287L895 347" stroke="#a99b68" stroke-width="1"/>
    <path d="M806 279L923 232 1017 285 895 339Z" fill="none" stroke="#c6ad71" stroke-width="1.2"/>
    <path d="M813 280L923 238 1009 285 895 333Z" fill="none" stroke="#b69c64" stroke-opacity=".7" stroke-width=".8"/>
    <g transform="matrix(.89 -.4 .91 .51 908 285)">
      <path d="M-37-34H37V34H-37Z" fill="none" stroke="#cbb37b" stroke-width="1.2"/>
      <g transform="translate(0 0) scale(0.93)" color="#d5bd82"><use href="#rosette"/></g>
      <g transform="rotate(0)"><path d="M-18-34Q0-17 18-34M-33-29L-25-21-33-12M33-29L25-21 33-12" fill="none" stroke="#bfaa76" stroke-width="1.1"/></g><g transform="rotate(90)"><path d="M-18-34Q0-17 18-34M-33-29L-25-21-33-12M33-29L25-21 33-12" fill="none" stroke="#bfaa76" stroke-width="1.1"/></g><g transform="rotate(180)"><path d="M-18-34Q0-17 18-34M-33-29L-25-21-33-12M33-29L25-21 33-12" fill="none" stroke="#bfaa76" stroke-width="1.1"/></g><g transform="rotate(270)"><path d="M-18-34Q0-17 18-34M-33-29L-25-21-33-12M33-29L25-21 33-12" fill="none" stroke="#bfaa76" stroke-width="1.1"/></g>
    </g>
    <path d="M818 279L832 274 821 289Z M920 244L917 253 936 251Z M991 284L977 282 978 293Z M895 326L905 316 886 317Z" fill="#d0b67b"/>
    <path d="M836 310L843 307M860 324L867 321M814 297L821 294" stroke="#dcc388" stroke-width="2"/>
    <path d="M955 340L973 334 989 367 978 364 974 376Z" fill="#c99d53"/><path d="M960 340L979 369" stroke="#f0ca79" stroke-opacity=".55"/>
  </g>
    <g class="dust" fill="#f4d697"><circle cx="905.43" cy="273.2" r="1.12" opacity="0.5"/><circle cx="860.39" cy="293.02" r="0.9" opacity="0.18"/><circle cx="982.65" cy="322.82" r="0.67" opacity="0.42"/><circle cx="801.01" cy="311.86" r="1.49" opacity="0.42"/><circle cx="1016.93" cy="280.22" r="1.02" opacity="0.2"/><circle cx="994.48" cy="197.87" r="0.84" opacity="0.21"/><circle cx="987.72" cy="200.11" r="0.92" opacity="0.19"/><circle cx="841.47" cy="233.49" r="0.91" opacity="0.25"/><circle cx="906.21" cy="296.89" r="1.27" opacity="0.46"/><circle cx="979.79" cy="270.86" r="1.33" opacity="0.18"/><circle cx="1044.03" cy="197.01" r="0.95" opacity="0.14"/><circle cx="792.56" cy="303.45" r="1.16" opacity="0.27"/><circle cx="797.41" cy="325.01" r="1.07" opacity="0.14"/><circle cx="864.08" cy="343.41" r="1" opacity="0.55"/><circle cx="921.25" cy="171.04" r="1.43" opacity="0.52"/><circle cx="915.36" cy="210.44" r="1.41" opacity="0.52"/><circle cx="979.66" cy="308.19" r="1.38" opacity="0.28"/><circle cx="846.39" cy="242.39" r="0.65" opacity="0.4"/><circle cx="955.37" cy="281.3" r="0.94" opacity="0.27"/><circle cx="940.04" cy="301.41" r="0.7" opacity="0.38"/><circle cx="968.73" cy="245.48" r="1.23" opacity="0.59"/><circle cx="964.71" cy="307.77" r="0.63" opacity="0.43"/><circle cx="947.4" cy="294.17" r="1.27" opacity="0.53"/><circle cx="805.6" cy="281.25" r="1.25" opacity="0.12"/></g>
    <ellipse cx="180" cy="472" rx="84" ry="17" fill="#0a242d" opacity=".6"/>
    <g transform="translate(175 444) scale(1.06)" fill="#1b4b48"><path d="M-3 0Q8-60 0-138L5-138Q14-67 4 0Z"/><path d="M3 -14Q-13.91 -49 -25.76 -38Q-17.26 -16 3 -14"/><path d="M3 -14L-21.12 -36" fill="none" stroke="#bfd7a2" stroke-opacity=".09"/><path d="M3 -20Q18.46 -55 34.18 -44Q22.9 -22 3 -20"/><path d="M3 -20L28.03 -42" fill="none" stroke="#bfd7a2" stroke-opacity=".09"/><path d="M3 -26Q-18.35 -61 -33.98 -50Q-22.77 -28 3 -26"/><path d="M3 -26L-27.86 -48" fill="none" stroke="#bfd7a2" stroke-opacity=".09"/><path d="M3 -32Q22.92 -67 42.44 -56Q28.44 -34 3 -32"/><path d="M3 -32L34.8 -54" fill="none" stroke="#bfd7a2" stroke-opacity=".09"/><path d="M3 -38Q-10.35 -73 -19.17 -62Q-12.85 -40 3 -38"/><path d="M3 -38L-15.72 -60" fill="none" stroke="#bfd7a2" stroke-opacity=".09"/><path d="M3 -44Q25.74 -79 47.67 -68Q31.94 -46 3 -44"/><path d="M3 -44L39.09 -66" fill="none" stroke="#bfd7a2" stroke-opacity=".09"/><path d="M3 -50Q-15.29 -85 -28.32 -74Q-18.97 -52 3 -50"/><path d="M3 -50L-23.22 -72" fill="none" stroke="#bfd7a2" stroke-opacity=".09"/><path d="M3 -56Q22.31 -91 41.31 -80Q27.68 -58 3 -56"/><path d="M3 -56L33.87 -78" fill="none" stroke="#bfd7a2" stroke-opacity=".09"/><path d="M3 -62Q-9.93 -97 -18.4 -86Q-12.33 -64 3 -62"/><path d="M3 -62L-15.09 -84" fill="none" stroke="#bfd7a2" stroke-opacity=".09"/><path d="M3 -68Q24.52 -103 45.41 -92Q30.43 -70 3 -68"/><path d="M3 -68L37.24 -90" fill="none" stroke="#bfd7a2" stroke-opacity=".09"/><path d="M3 -74Q-11.55 -109 -21.38 -98Q-14.33 -76 3 -74"/><path d="M3 -74L-17.54 -96" fill="none" stroke="#bfd7a2" stroke-opacity=".09"/><path d="M3 -80Q17.12 -115 31.7 -104Q21.24 -82 3 -80"/><path d="M3 -80L25.99 -102" fill="none" stroke="#bfd7a2" stroke-opacity=".09"/><path d="M3 -86Q-14.12 -121 -26.15 -110Q-17.52 -88 3 -86"/><path d="M3 -86L-21.45 -108" fill="none" stroke="#bfd7a2" stroke-opacity=".09"/><path d="M3 -92Q11.19 -127 20.72 -116Q13.88 -94 3 -92"/><path d="M3 -92L16.99 -114" fill="none" stroke="#bfd7a2" stroke-opacity=".09"/><path d="M3 -98Q-13.77 -133 -25.49 -122Q-17.08 -100 3 -98"/><path d="M3 -98L-20.9 -120" fill="none" stroke="#bfd7a2" stroke-opacity=".09"/><path d="M3 -104Q18.6 -139 34.45 -128Q23.08 -106 3 -104"/><path d="M3 -104L28.25 -126" fill="none" stroke="#bfd7a2" stroke-opacity=".09"/><path d="M3 -110Q-19.29 -145 -35.72 -134Q-23.93 -112 3 -110"/><path d="M3 -110L-29.29 -132" fill="none" stroke="#bfd7a2" stroke-opacity=".09"/><path d="M3 -116Q12.85 -151 23.8 -140Q15.95 -118 3 -116"/><path d="M3 -116L19.52 -138" fill="none" stroke="#bfd7a2" stroke-opacity=".09"/><path d="M3 -122Q-21.09 -157 -39.06 -146Q-26.17 -124 3 -122"/><path d="M3 -122L-32.03 -144" fill="none" stroke="#bfd7a2" stroke-opacity=".09"/></g>
    <g transform="translate(182 445) scale(0.7)" fill="#2f6256"><path d="M-3 0Q8-60 0-138L5-138Q14-67 4 0Z"/><path d="M3 -14Q-13.86 -49 -25.66 -38Q-17.19 -16 3 -14"/><path d="M3 -14L-21.04 -36" fill="none" stroke="#bfd7a2" stroke-opacity=".09"/><path d="M3 -20Q22.9 -55 42.41 -44Q28.42 -22 3 -20"/><path d="M3 -20L34.78 -42" fill="none" stroke="#bfd7a2" stroke-opacity=".09"/><path d="M3 -26Q-10.61 -61 -19.65 -50Q-13.16 -28 3 -26"/><path d="M3 -26L-16.11 -48" fill="none" stroke="#bfd7a2" stroke-opacity=".09"/><path d="M3 -32Q18.12 -67 33.56 -56Q22.49 -34 3 -32"/><path d="M3 -32L27.52 -54" fill="none" stroke="#bfd7a2" stroke-opacity=".09"/><path d="M3 -38Q-21.18 -73 -39.22 -62Q-26.28 -40 3 -38"/><path d="M3 -38L-32.16 -60" fill="none" stroke="#bfd7a2" stroke-opacity=".09"/><path d="M3 -44Q9.84 -79 18.22 -68Q12.21 -46 3 -44"/><path d="M3 -44L14.94 -66" fill="none" stroke="#bfd7a2" stroke-opacity=".09"/><path d="M3 -50Q-24.23 -85 -44.87 -74Q-30.06 -52 3 -50"/><path d="M3 -50L-36.79 -72" fill="none" stroke="#bfd7a2" stroke-opacity=".09"/><path d="M3 -56Q16.97 -91 31.43 -80Q21.06 -58 3 -56"/><path d="M3 -56L25.77 -78" fill="none" stroke="#bfd7a2" stroke-opacity=".09"/><path d="M3 -62Q-25.01 -97 -46.31 -86Q-31.03 -64 3 -62"/><path d="M3 -62L-37.97 -84" fill="none" stroke="#bfd7a2" stroke-opacity=".09"/><path d="M3 -68Q17.08 -103 31.63 -92Q21.19 -70 3 -68"/><path d="M3 -68L25.93 -90" fill="none" stroke="#bfd7a2" stroke-opacity=".09"/><path d="M3 -74Q-17.54 -109 -32.49 -98Q-21.77 -76 3 -74"/><path d="M3 -74L-26.64 -96" fill="none" stroke="#bfd7a2" stroke-opacity=".09"/><path d="M3 -80Q25.57 -115 47.35 -104Q31.72 -82 3 -80"/><path d="M3 -80L38.82 -102" fill="none" stroke="#bfd7a2" stroke-opacity=".09"/><path d="M3 -86Q-17.12 -121 -31.71 -110Q-21.24 -88 3 -86"/><path d="M3 -86L-26 -108" fill="none" stroke="#bfd7a2" stroke-opacity=".09"/><path d="M3 -92Q17.43 -127 32.28 -116Q21.63 -94 3 -92"/><path d="M3 -92L26.47 -114" fill="none" stroke="#bfd7a2" stroke-opacity=".09"/><path d="M3 -98Q-16.57 -133 -30.69 -122Q-20.56 -100 3 -98"/><path d="M3 -98L-25.17 -120" fill="none" stroke="#bfd7a2" stroke-opacity=".09"/><path d="M3 -104Q23 -139 42.59 -128Q28.53 -106 3 -104"/><path d="M3 -104L34.92 -126" fill="none" stroke="#bfd7a2" stroke-opacity=".09"/><path d="M3 -110Q-15.64 -145 -28.96 -134Q-19.41 -112 3 -110"/><path d="M3 -110L-23.75 -132" fill="none" stroke="#bfd7a2" stroke-opacity=".09"/><path d="M3 -116Q10.88 -151 20.15 -140Q13.5 -118 3 -116"/><path d="M3 -116L16.52 -138" fill="none" stroke="#bfd7a2" stroke-opacity=".09"/><path d="M3 -122Q-14.79 -157 -27.4 -146Q-18.36 -124 3 -122"/><path d="M3 -122L-22.47 -144" fill="none" stroke="#bfd7a2" stroke-opacity=".09"/></g>
    <path d="M136 429H214L201 476Q175 490 150 476Z" fill="url(#wood)" stroke="#56716a" stroke-width="1"/>
    <ellipse cx="175" cy="430" rx="39" ry="9" fill="#49675b"/><ellipse cx="175" cy="428" rx="32" ry="6" fill="#102d30"/>
    <path d="M146 448Q176 461 207 448M149 463Q176 475 203 464" fill="none" stroke="#8a9a7f" stroke-opacity=".4"/>
    <path d="M0 0H21V520H0Z" fill="#0d2933"/>
  <rect width="1200" height="520" fill="url(#vignette)" pointer-events="none"/></svg>
